<?xml version="1.0" standalone="no"?>
<!DOCTYPE svg PUBLIC "-//W3C//DTD SVG 20010904//EN"
 "http://www.w3.org/TR/2001/REC-SVG-20010904/DTD/svg10.dtd">
<svg version="1.0" xmlns="http://www.w3.org/2000/svg"
 width="532.000000pt" height="532.000000pt" viewBox="0 0 532.000000 532.000000"
 preserveAspectRatio="xMidYMid meet">
<metadata>
Created by potrace 1.14, written by Peter Selinger 2001-2017
</metadata>
<g transform="translate(0.000000,532.000000) scale(0.100000,-0.100000)"
fill="#000000" stroke="none">
<path d="M275 5299 c-97 -34 -183 -107 -227 -192 -51 -100 -48 38 -45 -2467
l2 -2335 32 -67 c41 -88 113 -160 201 -201 l67 -32 2355 0 2355 0 67 32 c120
57 200 157 227 283 9 42 11 623 9 2376 l-3 2320 -38 76 c-44 91 -102 146 -197
192 l-65 31 -2340 2 -2340 2 -60 -20z"/>
</g>
</svg>
